<svg width="72" height="72" viewBox="0 0 72 72" fill="none" xmlns="http://www.w3.org/2000/svg">
<g id="buildings 1" clip-path="url(#clip0_376_1411)">
<g id="Clip path group">
<mask id="mask0_376_1411" style="mask-type:luminance" maskUnits="userSpaceOnUse" x="0" y="0" width="72" height="72">
<g id="clip0_227_927">
<path id="Vector" d="M72 0H0V72H72V0Z" fill="white"/>
</g>
</mask>
<g mask="url(#mask0_376_1411)">
<g id="Group">
<path id="Vector_2" d="M15.2217 47.5342H10.054C9.27742 47.5342 8.64771 48.1639 8.64771 48.9404V54.1081C8.64771 54.8846 9.27742 55.5143 10.054 55.5143H15.2217C15.9981 55.5143 16.6279 54.8846 16.6279 54.1081V48.9404C16.6279 48.1637 15.9982 47.5342 15.2217 47.5342ZM13.8154 52.7018H11.4602V50.3467H13.8154V52.7018Z" fill="#AE1717"/>
<path id="Vector_3" d="M26.6767 47.5342H21.5091C20.7325 47.5342 20.1028 48.1639 20.1028 48.9404V54.1081C20.1028 54.8846 20.7325 55.5143 21.5091 55.5143H26.6767C27.4533 55.5143 28.083 54.8846 28.083 54.1081V48.9404C28.083 48.1637 27.4534 47.5342 26.6767 47.5342ZM25.2705 52.7018H22.9153V50.3467H25.2705V52.7018Z" fill="#AE1717"/>
<path id="Vector_4" d="M15.2217 58.3857H10.054C9.27742 58.3857 8.64771 59.0154 8.64771 59.792V64.9598C8.64771 65.7362 9.27742 66.366 10.054 66.366H15.2217C15.9981 66.366 16.6279 65.7362 16.6279 64.9598V59.792C16.6279 59.0153 15.9982 58.3857 15.2217 58.3857ZM13.8154 63.5535H11.4602V61.1982H13.8154V63.5535Z" fill="#AE1717"/>
<path id="Vector_5" d="M26.6767 58.3857H21.5091C20.7325 58.3857 20.1028 59.0154 20.1028 59.792V64.9598C20.1028 65.7362 20.7325 66.366 21.5091 66.366H26.6767C27.4533 66.366 28.083 65.7362 28.083 64.9598V59.792C28.083 59.0153 27.4534 58.3857 26.6767 58.3857ZM25.2705 63.5535H22.9153V61.1982H25.2705V63.5535Z" fill="#AE1717"/>
<path id="Vector_6" d="M21.375 36.3417C21.112 36.0801 20.7505 35.9297 20.3808 35.9297C20.0095 35.9297 19.648 36.08 19.3864 36.3417C19.1236 36.6033 18.9745 36.9662 18.9745 37.3359C18.9745 37.7058 19.1236 38.0687 19.3864 38.33C19.648 38.5916 20.0109 38.7422 20.3808 38.7422C20.7505 38.7422 21.112 38.5917 21.375 38.33C21.6364 38.0687 21.787 37.7058 21.787 37.3359C21.787 36.9662 21.6364 36.6033 21.375 36.3417Z" fill="#AE1717"/>
<path id="Vector_7" d="M70.5938 69.1875H69.1875V33.46C69.1875 32.6835 68.5578 32.0538 67.7812 32.0538H61.0491V13.938C61.0491 13.4175 60.7617 12.9395 60.3018 12.6957L36.6768 0.164017C36.2409 -0.0671702 35.7157 -0.0532483 35.293 0.201283C34.8702 0.455673 34.6116 0.912985 34.6116 1.4063V15.75H20.3804C19.6038 15.75 18.9741 16.3797 18.9741 17.1562V31.7423C18.9741 32.5188 19.6038 33.1485 20.3804 33.1485C21.1569 33.1485 21.7866 32.5188 21.7866 31.7423V18.5625H40.9116V24.1788H36.0178C35.2413 24.1788 34.6116 24.8085 34.6116 25.585C34.6116 26.3616 35.2413 26.9913 36.0178 26.9913H40.9116V32.0538H36.0178C35.2413 32.0538 34.6116 32.6835 34.6116 33.46C34.6116 34.2366 35.2413 34.8663 36.0178 34.8663H40.9116V39.9288H36.0178C35.2413 39.9288 34.6116 40.5585 34.6116 41.335C34.6116 42.1116 35.2413 42.7413 36.0178 42.7413H40.9116V47.8038H36.0178C35.2413 47.8038 34.6116 48.4335 34.6116 49.2101C34.6116 49.9866 35.2413 50.6163 36.0178 50.6163H40.9116V55.6788H36.0178C35.2413 55.6788 34.6116 56.3085 34.6116 57.0851C34.6116 57.8616 35.2413 58.4913 36.0178 58.4913H40.9116V63.5538H36.0178C35.2413 63.5538 34.6116 64.1835 34.6116 64.9601C34.6116 65.7366 35.2413 66.3663 36.0178 66.3663H40.9116V69.1875H33.75V43.3125C33.75 42.5359 33.1203 41.9062 32.3438 41.9062H4.21875C3.44221 41.9062 2.8125 42.5359 2.8125 43.3125V69.1875H1.40625C0.629719 69.1875 0 69.8172 0 70.5938C0 71.3703 0.629719 72 1.40625 72H70.5938C71.3703 72 72 71.3703 72 70.5938C72 69.8172 71.3704 69.1875 70.5938 69.1875ZM30.9375 69.1875H5.625V44.7188H30.9375V69.1875ZM48.375 33.46V69.1875H43.7241V17.1562C43.7241 16.3797 43.0944 15.75 42.3179 15.75H37.4241V3.74405L58.2366 14.784V32.0538H49.7812C49.0047 32.0538 48.375 32.6835 48.375 33.46ZM66.375 39.9288H58.7812C58.0047 39.9288 57.375 40.5585 57.375 41.335C57.375 42.1116 58.0047 42.7413 58.7812 42.7413H66.375V47.8038H58.7812C58.0047 47.8038 57.375 48.4335 57.375 49.2101C57.375 49.9866 58.0047 50.6163 58.7812 50.6163H66.375V55.6788H58.7812C58.0047 55.6788 57.375 56.3085 57.375 57.0851C57.375 57.8616 58.0047 58.4913 58.7812 58.4913H66.375V63.5538H62.1095C61.3329 63.5538 60.7032 64.1835 60.7032 64.9601C60.7032 65.7366 61.3329 66.3663 62.1095 66.3663H66.375V69.1875H51.1875V34.8663H66.375V39.9288Z" fill="#AE1717"/>
<path id="Vector_8" d="M56.7281 63.9659C56.4666 63.7043 56.1053 63.5537 55.734 63.5537C55.3641 63.5537 55.0014 63.7043 54.7398 63.9659C54.4782 64.2274 54.3278 64.5902 54.3278 64.96C54.3278 65.3299 54.4781 65.6927 54.7398 65.9543C55.0016 66.2158 55.3641 66.3662 55.734 66.3662C56.1053 66.3662 56.4666 66.2159 56.7281 65.9543C56.991 65.6927 57.1403 65.3299 57.1403 64.96C57.1403 64.5887 56.991 64.2274 56.7281 63.9659Z" fill="#AE1717"/>
<path id="Vector_9" d="M48.375 15.8906C47.5984 15.8906 46.9688 16.5203 46.9688 17.2967V19.9219C46.9688 20.6986 47.5984 21.3281 48.375 21.3281C49.1516 21.3281 49.7812 20.6984 49.7812 19.9219V17.2967C49.7812 16.5203 49.1516 15.8906 48.375 15.8906Z" fill="#AE1717"/>
<path id="Vector_10" d="M48.375 24.1787C47.5984 24.1787 46.9688 24.8086 46.9688 25.585V28.4807C46.9688 29.2574 47.5984 29.887 48.375 29.887C49.1516 29.887 49.7812 29.2573 49.7812 28.4807V25.585C49.7812 24.8086 49.1516 24.1787 48.375 24.1787Z" fill="#AE1717"/>
<path id="Vector_11" d="M54 15.8906C53.2234 15.8906 52.5938 16.5203 52.5938 17.2967V19.9219C52.5938 20.6986 53.2234 21.3281 54 21.3281C54.7766 21.3281 55.4062 20.6984 55.4062 19.9219V17.2967C55.4062 16.5203 54.7766 15.8906 54 15.8906Z" fill="#AE1717"/>
<path id="Vector_12" d="M54 24.1787C53.2234 24.1787 52.5938 24.8086 52.5938 25.585V28.4807C52.5938 29.2574 53.2234 29.887 54 29.887C54.7766 29.887 55.4062 29.2573 55.4062 28.4807V25.585C55.4062 24.8086 54.7766 24.1787 54 24.1787Z" fill="#AE1717"/>
</g>
</g>
</g>
</g>
<defs>
<clipPath id="clip0_376_1411">
<rect width="72" height="72" fill="white"/>
</clipPath>
</defs>
</svg>
