<svg width="66" height="66" viewBox="0 0 66 66" fill="none" xmlns="http://www.w3.org/2000/svg">
<g id="engineer 1">
<path id="Vector" d="M61.5275 31.2894L58.9029 30.1606V28.3661C58.9398 17.3515 51.99 7.52404 41.5924 3.88922V1.36001C41.5924 0.60926 40.9831 0 40.2329 0H25.6825C24.9322 0 24.3229 0.60926 24.3229 1.36001V3.90258C13.9254 7.53741 6.97564 17.3649 7.01251 28.3795V30.1878L4.41509 31.2894C3.91183 31.5018 3.58554 31.9954 3.58554 32.5406V39.6797C3.58554 40.4301 4.19479 41.0393 4.94554 41.0393H6.7134V43.7594C6.7134 44.5097 7.32221 45.119 8.07295 45.119H12.9549C13.4185 46.8214 14.0997 48.4587 14.9808 49.987L11.5271 53.4412C10.9994 53.9711 10.9994 54.8279 11.5271 55.3583L17.3063 61.1376C17.8364 61.6653 18.6931 61.6653 19.2235 61.1376L22.6772 57.6839C24.2018 58.5651 25.8336 59.2448 27.5319 59.7098V64.5917C27.5319 65.3421 28.1412 65.9513 28.8919 65.9513H37.0506C37.8014 65.9513 38.4106 65.3421 38.4106 64.5917V59.7098C40.113 59.2461 41.7501 58.5665 43.2787 57.6839L46.7328 61.1376C47.2629 61.6653 48.1196 61.6653 48.6501 61.1376L54.4292 55.3583C54.957 54.8279 54.957 53.9711 54.4292 53.4412L50.9751 49.987C51.8563 48.4587 52.5379 46.8214 53.0016 45.119H57.883C58.6337 45.119 59.243 44.5097 59.243 43.7594V41.0393H61.0108C61.7616 41.0393 62.3704 40.4301 62.3704 39.6797V32.5406C62.3677 31.9913 62.0349 31.4977 61.5275 31.2894ZM27.0153 2.73338H38.8729V25.4558H27.0425L27.0153 2.73338ZM56.5368 42.3994H52.0088C51.3562 42.3841 50.7862 42.8358 50.6488 43.4731C50.1907 45.6028 49.3478 47.6301 48.1606 49.4565C47.8108 49.9939 47.8859 50.7023 48.3372 51.1562L51.5871 54.4063L47.6979 58.2682L44.448 55.0183C43.9939 54.567 43.2857 54.4919 42.7482 54.8417C40.9219 56.0285 38.8945 56.8718 36.7649 57.3299C36.127 57.4673 35.6759 58.0374 35.6906 58.69V63.2723H30.2515V58.649C30.2668 57.9963 29.8151 57.4267 29.1772 57.2894C27.048 56.8322 25.0203 55.9893 23.1943 54.8008C22.657 54.4514 21.9486 54.526 21.4941 54.9777L18.2442 58.2277L14.396 54.3791L17.6461 51.129C18.0976 50.6751 18.1723 49.9667 17.823 49.4293C16.6247 47.6141 15.7679 45.596 15.2937 43.4731C15.1559 42.8358 14.5863 42.3841 13.9337 42.3994H9.40576V41.0393H21.8343C22.5796 47.1831 28.1643 51.5591 34.308 50.8124C39.4263 50.1912 43.4607 46.1576 44.0811 41.0393H56.5235L56.5368 42.3994ZM24.6082 41.0393H41.3478C40.5998 45.6655 36.2427 48.8095 31.617 48.0615C28.0081 47.4781 25.1783 44.6483 24.5949 41.0393H24.6082ZM59.6647 38.3197H6.29172V33.4379L8.91587 32.3092C9.41913 32.0972 9.74543 31.6037 9.74543 31.058V28.3385C9.71547 18.8415 15.4975 10.2938 24.3229 6.78528V26.8158C24.3229 27.566 24.9318 28.1753 25.6825 28.1753H40.2596C41.0103 28.1753 41.6196 27.566 41.6196 26.8158V6.78528C50.4599 10.2924 56.2488 18.8566 56.2105 28.3656V31.0856C56.2105 31.6308 56.5368 32.1244 57.0401 32.3364L59.6643 33.465L59.6647 38.3197Z" fill="#AE1717"/>
</g>
</svg>
