<svg width="56" height="57" viewBox="0 0 56 57" fill="none" xmlns="http://www.w3.org/2000/svg">
<g id="664c72c1acd562a64bba4a1f_Solutions Icon 1" clip-path="url(#clip0_492_653)">
<g id="Clip path group">
<mask id="mask0_492_653" style="mask-type:luminance" maskUnits="userSpaceOnUse" x="0" y="0" width="56" height="57">
<g id="clip0_175_354">
<path id="Vector" d="M56 0.5H0V56.5H56V0.5Z" fill="white"/>
</g>
</mask>
<g mask="url(#mask0_492_653)">
<g id="Group">
<path id="Vector_2" d="M7.41797 36.3447L9.83297 10.9766H20.9162L22.951 32.3242" stroke="#AE1717" stroke-width="1.5" stroke-linecap="round" stroke-linejoin="round"/>
<path id="Vector_3" d="M1.75 54.7267H54.25V27.5667C54.25 26.8804 53.9774 26.2222 53.4922 25.7368C53.0068 25.2516 52.3486 24.979 51.6623 24.979C51.4434 24.979 51.2253 25.0072 51.0137 25.063L3.5 37.3667C2.99926 37.4965 2.55589 37.789 2.23954 38.1983C1.92319 38.6076 1.75181 39.1104 1.75234 39.6276L1.75 54.7267Z" stroke="#AE1717" stroke-width="1.5" stroke-linecap="round" stroke-linejoin="round"/>
<path id="Vector_4" d="M18.6797 2.5511C21.088 2.50814 23.4754 3.00317 25.668 4.0001C43.0023 11.4014 50.168 2.27344 50.168 2.27344" stroke="#AE1717" stroke-width="1.5" stroke-linecap="round" stroke-linejoin="round"/>
<path id="Vector_5" d="M46.0847 54.7292H34.418V44.2292C34.418 43.6104 34.664 43.0168 35.1015 42.5794C35.539 42.1419 36.1326 41.896 36.7514 41.896H43.7514C44.3702 41.896 44.9638 42.1419 45.4012 42.5794C45.8388 43.0168 46.0847 43.6104 46.0847 44.2292V54.7292Z" stroke="#AE1717" stroke-width="1.5" stroke-linecap="round" stroke-linejoin="round"/>
<path id="Vector_6" d="M26.25 45.3936H22.75" stroke="#AE1717" stroke-width="1.5" stroke-linecap="round" stroke-linejoin="round"/>
<path id="Vector_7" d="M14.582 45.3936H11.082" stroke="#AE1717" stroke-width="1.5" stroke-linecap="round" stroke-linejoin="round"/>
</g>
</g>
</g>
</g>
<defs>
<clipPath id="clip0_492_653">
<rect width="56" height="56" fill="white" transform="translate(0 0.5)"/>
</clipPath>
</defs>
</svg>
