<svg width="56" height="55" viewBox="0 0 56 55" fill="none" xmlns="http://www.w3.org/2000/svg">
<path d="M36.4961 27.5H52.4634" stroke="#AE1717" stroke-width="1.5" stroke-miterlimit="10" stroke-linecap="round" stroke-linejoin="round"/>
<path d="M52.4619 7.63525H44.4783C43.1096 7.63525 42.1973 8.54336 42.1973 9.90552V45.0947C42.1973 46.4569 43.1096 47.365 44.4783 47.365H52.4619" stroke="#AE1717" stroke-width="1.5" stroke-miterlimit="10" stroke-linecap="round" stroke-linejoin="round"/>
<path d="M31.2505 45.0946C29.1976 39.1919 23.4949 34.8784 16.88 34.8784C10.2649 34.8784 4.33419 39.1919 2.28125 45.0946" stroke="#AE1717" stroke-width="1.5" stroke-miterlimit="10" stroke-linecap="round" stroke-linejoin="round"/>
<path d="M16.6515 14.4461V7.63525M4.10547 21.0298H29.1968M7.29894 23.5271C7.52704 28.5217 11.6329 32.6082 16.6511 32.6082C21.8976 32.6082 26.0035 28.5217 26.0035 23.3001V19.2136C26.0035 13.992 21.8976 9.90552 16.6511 9.90552C11.6329 9.90552 7.52704 13.992 7.29894 18.9866V23.5271Z" stroke="#AE1717" stroke-width="1.5" stroke-miterlimit="10" stroke-linecap="round" stroke-linejoin="round"/>
</svg>
