<svg width="64" height="66" viewBox="0 0 64 66" fill="none" xmlns="http://www.w3.org/2000/svg">
<g id="6659539e465c86eb74b94907_About Cards Icon 1">
<path id="Vector" d="M60.3467 40.5414L40 61.3478L30 63.3927L32 53.168L52.3467 32.3644C52.8701 31.8281 53.492 31.4028 54.1766 31.1127C54.8611 30.8223 55.595 30.6729 56.336 30.6729C57.077 30.6729 57.8109 30.8223 58.4954 31.1127C59.18 31.4028 59.8019 31.8281 60.3253 32.3644L60.3467 32.3862C60.871 32.9212 61.287 33.5571 61.5709 34.2567C61.8546 34.9563 62.0008 35.7064 62.0008 36.4639C62.0008 37.2213 61.8546 37.9713 61.5709 38.6709C61.287 39.3705 60.871 40.0061 60.3467 40.5414Z" stroke="#AE1717" stroke-width="1.5" stroke-linecap="round" stroke-linejoin="round"/>
<path id="Vector_2" d="M10 38.8535H34" stroke="#AE1717" stroke-width="1.5" stroke-linecap="round" stroke-linejoin="round"/>
<path id="Vector_3" d="M22 38.8535V18.4043" stroke="#AE1717" stroke-width="1.5" stroke-linecap="round" stroke-linejoin="round"/>
<path id="Vector_4" d="M30 38.8534V22.4941" stroke="#AE1717" stroke-width="1.5" stroke-linecap="round" stroke-linejoin="round"/>
<path id="Vector_5" d="M14 38.8535V26.584" stroke="#AE1717" stroke-width="1.5" stroke-linecap="round" stroke-linejoin="round"/>
<path id="Vector_6" d="M20 55.2129H6C4.93914 55.2129 3.92171 54.7821 3.17158 54.0151C2.42143 53.2481 2 52.2077 2 51.123V6.13476C2 5.05008 2.42143 4.00978 3.17158 3.24281C3.92171 2.47582 4.93914 2.04492 6 2.04492H34.3439C35.404 2.04515 36.4207 2.47566 37.1706 3.24188L44.8294 11.0726C45.5787 11.8393 45.9997 12.8788 46 13.9627V22.4942" stroke="#AE1717" stroke-width="1.5" stroke-linecap="round" stroke-linejoin="round"/>
</g>
</svg>
