<svg width="71" height="72" viewBox="0 0 71 72" fill="none" xmlns="http://www.w3.org/2000/svg">
<g id="664c85f0c9c624f60a8b82b7_Icon (16) 1" clip-path="url(#clip0_162_175)">
<g id="Clip path group">
<mask id="mask0_162_175" style="mask-type:luminance" maskUnits="userSpaceOnUse" x="0" y="0" width="71" height="72">
<g id="clip0_226_98">
<path id="Vector" d="M71 0.5H0V71.5H71V0.5Z" fill="white"/>
</g>
</mask>
<g mask="url(#mask0_162_175)">
<g id="Group">
<path id="Vector_2" d="M34.216 3.50798C34.3358 3.27024 34.5193 3.07043 34.7462 2.93081C34.9728 2.79122 35.2336 2.71729 35.5 2.71729C35.7661 2.71729 36.0272 2.79122 36.254 2.93081C36.4807 3.07043 36.6642 3.27024 36.7839 3.50798L39.7689 9.52522C39.872 9.73149 40.0236 9.90972 40.2105 10.0447C40.3974 10.1797 40.6145 10.2674 40.8426 10.3003L47.5404 11.2677C47.8018 11.3044 48.0482 11.4133 48.2516 11.582C48.4547 11.7508 48.6068 11.9728 48.6911 12.2232C48.7738 12.4726 48.7841 12.7404 48.7204 12.9954C48.6572 13.2503 48.5228 13.4821 48.3331 13.6639L43.4875 18.3795C43.324 18.5374 43.201 18.7328 43.13 18.9488C43.0587 19.1648 43.0413 19.3948 43.0791 19.6191L44.227 26.2664C44.2706 26.5265 44.2394 26.7936 44.1379 27.0368C44.0365 27.2801 43.8684 27.4898 43.6531 27.6422C43.4362 27.797 43.1806 27.8886 42.9149 27.9069C42.649 27.925 42.3833 27.8694 42.1474 27.7457L36.1685 24.6276C35.9626 24.5182 35.7331 24.4611 35.5 24.4611C35.2668 24.4611 35.0373 24.5182 34.8314 24.6276L28.8674 27.7457C28.6313 27.8694 28.3656 27.925 28.1 27.9069C27.8341 27.8886 27.5785 27.797 27.3616 27.6422C27.1463 27.4898 26.9782 27.2801 26.8767 27.0368C26.7752 26.7936 26.7443 26.5265 26.7876 26.2664L27.9355 19.6191C27.9733 19.3948 27.9559 19.1648 27.8847 18.9488C27.8137 18.7328 27.6909 18.5374 27.5274 18.3795L22.6667 13.6639C22.477 13.4821 22.3427 13.2503 22.2794 12.9954C22.216 12.7404 22.2262 12.4726 22.3088 12.2232C22.393 11.9728 22.5452 11.7508 22.7485 11.582C22.9518 11.4133 23.198 11.3044 23.4595 11.2677L30.1571 10.3003C30.3855 10.2674 30.6024 10.1797 30.7895 10.0447C30.9764 9.90972 31.1278 9.73149 31.2311 9.52522L34.216 3.50798Z" stroke="#AE1717" stroke-width="1.5" stroke-linecap="round" stroke-linejoin="round"/>
<path id="Vector_3" d="M18.7024 30.3796L16.1493 29.0484C15.9425 28.9405 15.7126 28.8842 15.4793 28.8842C15.246 28.8842 15.0161 28.9405 14.8092 29.0484L8.84817 32.1546C8.61172 32.2778 8.34581 32.3337 8.07968 32.316C7.81356 32.2982 7.55746 32.2077 7.33942 32.0538C7.12415 31.9012 6.95639 31.691 6.85536 31.4468C6.75436 31.2032 6.72424 30.9356 6.76847 30.6752L7.91333 24.031C7.95204 23.807 7.93532 23.5771 7.86468 23.3609C7.79403 23.1448 7.67159 22.9494 7.50806 22.7915L2.64456 18.0848C2.45597 17.9023 2.32265 17.6703 2.25985 17.4155C2.19706 17.1606 2.20736 16.8933 2.28955 16.6441C2.37377 16.3937 2.52601 16.1716 2.72928 16.0029C2.93252 15.8341 3.17873 15.7252 3.44033 15.6885L10.1351 14.7211C10.3638 14.6886 10.5813 14.6012 10.7689 14.4662C10.9564 14.3312 11.1085 14.1527 11.2119 13.9461L14.1998 7.92881C14.3192 7.69077 14.5026 7.49076 14.7294 7.35126C14.9562 7.21171 15.2174 7.13819 15.4837 7.13892" stroke="#AE1717" stroke-width="1.5" stroke-linecap="round" stroke-linejoin="round"/>
<path id="Vector_4" d="M52.2972 30.3796L54.8502 29.0454C55.0571 28.9376 55.2868 28.8812 55.5204 28.8812C55.7538 28.8812 55.9835 28.9376 56.1903 29.0454L62.1513 32.1546C62.3877 32.2778 62.6538 32.3337 62.92 32.316C63.1859 32.2982 63.4421 32.2077 63.6602 32.0538C63.8755 31.9012 64.0431 31.691 64.1441 31.4468C64.2454 31.2032 64.2754 30.9356 64.2312 30.6752L63.0862 24.031C63.0475 23.807 63.0642 23.5771 63.135 23.3609C63.2053 23.1448 63.3279 22.9494 63.4916 22.7915L68.3551 18.0729C68.5438 17.8904 68.6769 17.6585 68.7397 17.4036C68.8026 17.1488 68.7923 16.8815 68.7101 16.6322C68.6256 16.3818 68.4735 16.1598 68.2704 15.9911C68.0672 15.8223 67.8208 15.7134 67.5592 15.6767L60.8646 14.7093C60.6358 14.6768 60.4185 14.5893 60.2309 14.4543C60.0433 14.3193 59.8912 14.1409 59.7877 13.9342L56.7998 7.92881C56.6804 7.69077 56.4972 7.49076 56.2702 7.35126C56.0433 7.21171 55.7822 7.13819 55.5158 7.13892" stroke="#AE1717" stroke-width="1.5" stroke-linecap="round" stroke-linejoin="round"/>
<path id="Vector_5" d="M23.3031 46.1968V49.1552C23.4172 52.5609 22.5328 55.9254 20.7588 58.8348" stroke="#AE1717" stroke-width="1.5" stroke-linecap="round" stroke-linejoin="round"/>
<path id="Vector_6" d="M47.7001 46.1968V49.1552C47.5853 52.5604 48.4685 55.9249 50.2414 58.8348" stroke="#AE1717" stroke-width="1.5" stroke-linecap="round" stroke-linejoin="round"/>
<path id="Vector_7" d="M23.3354 46.8425C25.6463 46.8267 27.927 46.3174 30.0252 45.3486C32.1229 44.3795 33.9895 42.9737 35.5002 41.2246C37.0102 42.9742 38.8768 44.3807 40.9748 45.3499C43.0729 46.3194 45.3536 46.8293 47.6648 46.8455" stroke="#AE1717" stroke-width="1.5" stroke-linecap="round" stroke-linejoin="round"/>
<path id="Vector_8" d="M23.2969 45.8688C23.2969 49.1055 24.5825 52.2094 26.871 54.4978C29.1597 56.7861 32.2635 58.0719 35.5 58.0719C38.7365 58.0719 41.8403 56.7861 44.1288 54.4978C46.4175 52.2094 47.7031 49.1055 47.7031 45.8688C47.7031 42.6324 46.4175 39.5285 44.1288 37.2398C41.8403 34.9513 38.7365 33.6655 35.5 33.6655C32.2635 33.6655 29.1597 34.9513 26.871 37.2398C24.5825 39.5285 23.2969 42.6324 23.2969 45.8688Z" stroke="#AE1717" stroke-width="1.5" stroke-linecap="round" stroke-linejoin="round"/>
<path id="Vector_9" d="M50.4308 69.2818C48.3739 66.947 45.801 65.1239 42.9165 63.9568L35.5 69.1664L28.0835 63.9687C25.2146 65.1265 22.653 66.9328 20.5989 69.2463" stroke="#AE1717" stroke-width="1.5" stroke-linecap="round" stroke-linejoin="round"/>
</g>
</g>
</g>
</g>
<defs>
<clipPath id="clip0_162_175">
<rect width="71" height="71" fill="white" transform="translate(0 0.5)"/>
</clipPath>
</defs>
</svg>
