<svg width="116" height="118" viewBox="0 0 116 118" fill="none" xmlns="http://www.w3.org/2000/svg">
<path id="Fill 2" fill-rule="evenodd" clip-rule="evenodd" d="M76.2454 112.471H76.2307C75.6061 112.471 75.0584 112.719 74.6023 113.075C74.5144 113.144 74.4045 113.185 74.3257 113.264C73.888 113.704 73.6352 114.306 73.5802 114.963C73.5747 115.036 73.5381 115.1 73.5381 115.176C73.5381 115.51 73.6169 115.822 73.7286 116.115C73.7652 116.21 73.811 116.293 73.8568 116.383C73.9557 116.576 74.0748 116.754 74.2177 116.917C74.2873 116.998 74.3496 117.08 74.4283 117.152C74.6445 117.348 74.8826 117.521 75.1537 117.64H75.1555C75.4907 117.788 75.8571 117.878 76.2454 117.878C77.4488 117.878 78.4325 117.078 78.7823 115.987C78.8758 115.737 78.9399 115.477 78.9417 115.19C78.9417 115.185 78.9454 115.181 78.9454 115.176C78.9454 113.68 77.7364 112.471 76.2454 112.471ZM114.018 80.2309C113.756 80.1209 113.465 80.0787 113.166 80.0585C113.113 80.0567 113.071 80.0273 113.016 80.0273H113.001C111.51 80.0273 110.309 81.2379 110.309 82.7328C110.309 83.096 110.386 83.439 110.516 83.7508C110.607 83.9746 110.757 84.1543 110.898 84.3432C110.957 84.4148 110.99 84.5028 111.052 84.5689C111.501 85.0457 112.12 85.3392 112.813 85.3942C112.816 85.3942 112.82 85.3961 112.824 85.3979V85.3961C112.889 85.4016 112.948 85.4346 113.016 85.4346C114.507 85.4346 115.716 84.224 115.716 82.7328C115.716 81.5956 115.011 80.6308 114.018 80.2309ZM21.0921 32.4434H21.0774C19.5864 32.4434 18.3848 33.6539 18.3848 35.147C18.3848 36.6382 19.601 37.8506 21.0921 37.8506C22.5813 37.8506 23.792 36.6382 23.792 35.147C23.792 33.6539 22.5813 32.4434 21.0921 32.4434ZM21.0921 96.249H21.0774C19.5864 96.249 18.3848 97.4582 18.3848 98.9536C18.3848 100.445 19.601 101.656 21.0921 101.656C22.5813 101.656 23.792 100.445 23.792 98.9536C23.792 97.4582 22.5813 96.249 21.0921 96.249ZM39.476 54.0725C40.967 54.0725 42.1759 52.8601 42.1759 51.3689C42.1759 49.874 40.967 48.6652 39.476 48.6652H39.4632C37.9703 48.6652 36.7687 49.874 36.7687 51.3689C36.7687 52.8601 37.985 54.0725 39.476 54.0725ZM21.0921 16.2217H21.0774C19.5864 16.2217 18.3848 17.4323 18.3848 18.9253C18.3848 20.4184 19.601 21.6289 21.0921 21.6289C22.5813 21.6289 23.792 20.4184 23.792 18.9253C23.792 17.4323 22.5813 16.2217 21.0921 16.2217ZM21.0921 63.8057H21.0774C19.5864 63.8057 18.3848 65.0162 18.3848 66.5093C18.3848 68.0023 19.601 69.2129 21.0921 69.2129C22.5813 69.2129 23.792 68.0023 23.792 66.5093C23.792 65.0162 22.5813 63.8057 21.0921 63.8057ZM21.0921 80.0273H21.0774C19.5864 80.0273 18.3848 81.2379 18.3848 82.7328C18.3848 84.224 19.601 85.4346 21.0921 85.4346C22.5813 85.4346 23.792 84.224 23.792 82.7328C23.792 81.2379 22.5813 80.0273 21.0921 80.0273ZM39.476 21.6291C40.967 21.6291 42.1759 20.4185 42.1759 18.9255C42.1759 17.4324 40.967 16.2219 39.476 16.2219H39.4632C37.9703 16.2219 36.7687 17.4324 36.7687 18.9255C36.7687 20.4185 37.985 21.6291 39.476 21.6291ZM39.476 37.8508C40.967 37.8508 42.1759 36.6384 42.1759 35.1472C42.1759 33.6541 40.967 32.4436 39.476 32.4436H39.4632C37.9703 32.4436 36.7687 33.6541 36.7687 35.1472C36.7687 36.6384 37.985 37.8508 39.476 37.8508ZM39.476 5.40726C40.967 5.40726 42.1759 4.19668 42.1759 2.70363C42.1759 1.21058 40.967 0 39.476 0H39.4632C37.9703 0 36.7687 1.21058 36.7687 2.70363C36.7687 4.19668 37.985 5.40726 39.476 5.40726ZM21.0921 48.665H21.0774C19.5864 48.665 18.3848 49.8738 18.3848 51.3687C18.3848 52.8599 19.601 54.0723 21.0921 54.0723C22.5813 54.0723 23.792 52.8599 23.792 51.3687C23.792 49.8738 22.5813 48.665 21.0921 48.665ZM2.70912 63.8059H2.69264C1.20161 63.8059 0 65.0164 0 66.5095C0 68.0025 1.2181 69.2131 2.70912 69.2131C4.20015 69.2131 5.40726 68.0025 5.40726 66.5095C5.40726 65.0164 4.20015 63.8059 2.70912 63.8059ZM2.70912 48.6652H2.69264C1.20161 48.6652 0 49.874 0 51.3689C0 52.8601 1.2181 54.0725 2.70912 54.0725C4.20015 54.0725 5.40726 52.8601 5.40726 51.3689C5.40726 49.874 4.20015 48.6652 2.70912 48.6652ZM2.70821 80.0272H2.69172C2.35273 80.0272 2.03574 80.1042 1.74073 80.2216C1.59048 80.2785 1.46588 80.3702 1.33028 80.4527C1.21668 80.5243 1.10124 80.5885 0.998629 80.6783C0.820892 80.8232 0.681633 80.992 0.54604 81.1791C0.520387 81.2176 0.494734 81.2524 0.469081 81.2946C0.322493 81.5221 0.214385 81.7605 0.141091 82.0283L0.139258 82.0301V82.032C0.0769586 82.2594 0 82.4832 0 82.7326C0 83.7965 0.63216 84.6971 1.52818 85.1373V85.1391H1.53001C1.88732 85.3134 2.27211 85.4289 2.69355 85.4308C2.69905 85.4308 2.70271 85.4344 2.70821 85.4344C4.19974 85.4344 5.40726 84.2239 5.40726 82.7326C5.40726 82.3585 5.33213 82.0026 5.19471 81.6798C4.78609 80.7095 3.82594 80.0272 2.70821 80.0272ZM94.6301 48.665H94.6155C93.1245 48.665 91.9229 49.8738 91.9229 51.3687C91.9229 52.8599 93.1391 54.0723 94.6301 54.0723C96.1212 54.0723 97.3301 52.8599 97.3301 51.3687C97.3301 49.8738 96.1212 48.665 94.6301 48.665ZM2.70821 32.4436H2.69172C2.38388 32.4436 2.09987 32.5114 1.83235 32.6178C1.58865 32.7022 1.37609 32.8287 1.17087 32.9755C1.16904 32.9755 1.16904 32.9755 1.16721 32.9773C0.47641 33.467 0 34.2337 0 35.1472C0 35.2627 0.0513057 35.3599 0.0659645 35.4737H0.0641322C0.0641322 35.4773 0.0659645 35.4792 0.0677969 35.481C0.152085 36.1395 0.447093 36.7209 0.918006 37.1428C0.982138 37.2015 1.06276 37.2345 1.13056 37.2859C1.31563 37.4216 1.49336 37.5628 1.71141 37.649C2.01741 37.7756 2.3509 37.8508 2.70821 37.8508C3.82594 37.8508 4.78609 37.1703 5.19471 36.1982C5.33213 35.8754 5.40726 35.5195 5.40726 35.1472C5.40726 34.7748 5.33213 34.419 5.19471 34.0962C4.78609 33.124 3.82594 32.4436 2.70821 32.4436ZM94.6301 63.8057H94.6155C93.1245 63.8057 91.9229 65.0162 91.9229 66.5093C91.9229 68.0023 93.1391 69.2129 94.6301 69.2129C96.1212 69.2129 97.3301 68.0023 97.3301 66.5093C97.3301 65.0162 96.1212 63.8057 94.6301 63.8057ZM94.6301 32.4434H94.6155C93.1245 32.4434 91.9229 33.6539 91.9229 35.147C91.9229 36.6382 93.1391 37.8506 94.6301 37.8506C96.1212 37.8506 97.3301 36.6382 97.3301 35.147C97.3301 33.6539 96.1212 32.4434 94.6301 32.4434ZM94.6301 96.249H94.6155C93.1245 96.249 91.9229 97.4582 91.9229 98.9536C91.9229 100.445 93.1391 101.656 94.6301 101.656C96.1212 101.656 97.3301 100.445 97.3301 98.9536C97.3301 97.4582 96.1212 96.249 94.6301 96.249ZM94.6301 80.0278H94.6155C93.1245 80.0278 91.9229 81.2384 91.9229 82.7333C91.9229 84.2245 93.1391 85.4351 94.6301 85.4351C96.1212 85.4351 97.3301 84.2245 97.3301 82.7333C97.3301 81.2384 96.1212 80.0278 94.6301 80.0278ZM76.2463 5.40726C77.7368 5.40726 78.9454 4.19668 78.9454 2.70363C78.9454 2.70363 78.9435 2.70179 78.9435 2.69996C78.9435 2.26158 78.8154 1.86356 78.6286 1.49672C78.6103 1.46187 78.5865 1.43619 78.5663 1.40317C78.3704 1.05651 78.1031 0.768535 77.7789 0.537424H77.7771C77.3358 0.223774 76.8268 0 76.2463 0H76.2317C74.7411 0 73.5381 1.21058 73.5381 2.70363C73.5381 4.19668 74.7558 5.40726 76.2463 5.40726ZM94.6301 16.2217H94.6155C93.1245 16.2217 91.9229 17.4323 91.9229 18.9253C91.9229 20.4184 93.1391 21.6289 94.6301 21.6289C96.1212 21.6289 97.3301 20.4184 97.3301 18.9253C97.3301 17.4323 96.1212 16.2217 94.6301 16.2217ZM76.2454 32.4436H76.2307C74.7397 32.4436 73.5381 33.6541 73.5381 35.1472C73.5381 36.6384 74.7544 37.8508 76.2454 37.8508C77.7364 37.8508 78.9454 36.6384 78.9454 35.1472C78.9454 33.6541 77.7364 32.4436 76.2454 32.4436ZM76.2454 80.0275H76.2307C74.7397 80.0275 73.5381 81.2381 73.5381 82.733C73.5381 84.2242 74.7544 85.4348 76.2454 85.4348C77.7364 85.4348 78.9454 84.2242 78.9454 82.733C78.9454 81.2381 77.7364 80.0275 76.2454 80.0275ZM76.2454 63.8059H76.2307C74.7397 63.8059 73.5381 65.0164 73.5381 66.5095C73.5381 68.0025 74.7544 69.2131 76.2454 69.2131C77.7364 69.2131 78.9454 68.0025 78.9454 66.5095C78.9454 65.0164 77.7364 63.8059 76.2454 63.8059ZM76.2454 48.6652H76.2307C74.7397 48.6652 73.5381 49.874 73.5381 51.3689C73.5381 52.8601 74.7544 54.0725 76.2454 54.0725C77.7364 54.0725 78.9454 52.8601 78.9454 51.3689C78.9454 49.874 77.7364 48.6652 76.2454 48.6652ZM76.2454 96.2494H76.2307C74.7397 96.2494 73.5381 97.4586 73.5381 98.954C73.5381 100.446 74.7544 101.657 76.2454 101.657C77.7364 101.657 78.9454 100.446 78.9454 98.954C78.9454 97.4586 77.7364 96.2494 76.2454 96.2494ZM39.476 69.2131C40.967 69.2131 42.1759 68.0025 42.1759 66.5095C42.1759 65.0164 40.967 63.8059 39.476 63.8059H39.4632C37.9703 63.8059 36.7687 65.0164 36.7687 66.5095C36.7687 68.0025 37.985 69.2131 39.476 69.2131ZM41.3846 113.264C41.304 113.183 41.1941 113.143 41.1044 113.075C40.6483 112.719 40.1006 112.471 39.476 112.471H39.4613C37.9703 112.471 36.7687 113.68 36.7687 115.176C36.7687 115.91 37.0673 116.57 37.5435 117.058C37.5453 117.06 37.5453 117.062 37.5472 117.062C38.0381 117.565 38.7195 117.878 39.476 117.878C39.6189 117.878 39.7416 117.82 39.879 117.798C39.8808 117.798 39.8826 117.796 39.8845 117.796C40.5219 117.697 41.0787 117.403 41.4836 116.939C41.5495 116.867 41.588 116.779 41.6447 116.7C41.7675 116.526 41.8975 116.361 41.9781 116.161C42.099 115.862 42.1704 115.535 42.1723 115.187C42.1723 115.183 42.1759 115.181 42.1759 115.176C42.1759 114.489 41.8994 113.88 41.4799 113.403C41.4414 113.359 41.4249 113.302 41.3846 113.264ZM111.963 37.6379C112.288 37.7754 112.643 37.8506 113.017 37.8506C113.411 37.8506 113.779 37.7571 114.116 37.6049C114.127 37.5994 114.135 37.5902 114.146 37.5847C114.475 37.4307 114.759 37.2144 114.999 36.9467C115.436 36.4681 115.716 35.8447 115.716 35.1479C115.716 33.6554 114.507 32.4434 113.017 32.4434H113.002C111.511 32.4434 110.309 33.6554 110.309 35.1479C110.309 36.2664 110.992 37.2272 111.963 37.6379ZM113.017 54.0723C114.507 54.0723 115.716 52.8599 115.716 51.3687C115.716 49.8738 114.507 48.665 113.017 48.665H113.002C111.511 48.665 110.309 49.8738 110.309 51.3687C110.309 52.8599 111.523 54.0723 113.017 54.0723ZM113.017 69.2129C114.507 69.2129 115.716 68.0023 115.716 66.5093C115.716 65.0162 114.507 63.8057 113.017 63.8057H113.002C111.511 63.8057 110.309 65.0162 110.309 66.5093C110.309 68.0023 111.523 69.2129 113.017 69.2129ZM57.8606 32.4434H57.8478C56.3568 32.4434 55.1533 33.6539 55.1533 35.147C55.1533 36.6382 56.3696 37.8506 57.8606 37.8506C59.3516 37.8506 60.5606 36.6382 60.5606 35.147C60.5606 33.6539 59.3516 32.4434 57.8606 32.4434ZM57.8606 16.2217H57.8478C56.3568 16.2217 55.1533 17.4323 55.1533 18.9253C55.1533 20.4184 56.3696 21.6289 57.8606 21.6289C59.3516 21.6289 60.5606 20.4184 60.5606 18.9253C60.5606 17.4323 59.3516 16.2217 57.8606 16.2217ZM57.8606 0H57.8478C56.3568 0 55.1533 1.21058 55.1533 2.70363C55.1533 4.19668 56.3696 5.40726 57.8606 5.40726C59.3516 5.40726 60.5606 4.19668 60.5606 2.70363C60.5606 1.21058 59.3516 0 57.8606 0ZM39.476 101.656C40.967 101.656 42.1759 100.445 42.1759 98.9538C42.1759 97.4584 40.967 96.2492 39.476 96.2492H39.4632C37.9703 96.2492 36.7687 97.4584 36.7687 98.9538C36.7687 100.445 37.985 101.656 39.476 101.656ZM39.476 85.435C40.967 85.435 42.1759 84.2244 42.1759 82.7332C42.1759 81.2383 40.967 80.0277 39.476 80.0277H39.4632C37.9703 80.0277 36.7687 81.2383 36.7687 82.7332C36.7687 84.2244 37.985 85.435 39.476 85.435ZM57.8606 48.665H57.8478C56.3568 48.665 55.1533 49.8738 55.1533 51.3687C55.1533 52.8599 56.3696 54.0723 57.8606 54.0723C59.3516 54.0723 60.5606 52.8599 60.5606 51.3687C60.5606 49.8738 59.3516 48.665 57.8606 48.665ZM76.2454 16.2219H76.2307C74.7397 16.2219 73.5381 17.4324 73.5381 18.9255C73.5381 20.4185 74.7544 21.6291 76.2454 21.6291C77.7364 21.6291 78.9454 20.4185 78.9454 18.9255C78.9454 17.4324 77.7364 16.2219 76.2454 16.2219ZM57.8606 96.2495H57.8478C56.3568 96.2495 55.1533 97.4587 55.1533 98.9541C55.1533 100.446 56.3696 101.657 57.8606 101.657C59.3516 101.657 60.5606 100.446 60.5606 98.9541C60.5606 97.4587 59.3516 96.2495 57.8606 96.2495ZM57.8606 112.471H57.8478C56.3568 112.471 55.1533 113.682 55.1533 115.176C55.1533 116.669 56.3696 117.878 57.8606 117.878C59.3516 117.878 60.5606 116.669 60.5606 115.176C60.5606 113.682 59.3516 112.471 57.8606 112.471ZM57.8606 80.0273H57.8478C56.3568 80.0273 55.1533 81.2379 55.1533 82.7328C55.1533 84.224 56.3696 85.4346 57.8606 85.4346C59.3516 85.4346 60.5606 84.224 60.5606 82.7328C60.5606 81.2379 59.3516 80.0273 57.8606 80.0273ZM57.8606 63.8057H57.8478C56.3568 63.8057 55.1533 65.0162 55.1533 66.5093C55.1533 68.0023 56.3696 69.2129 57.8606 69.2129C59.3516 69.2129 60.5606 68.0023 60.5606 66.5093C60.5606 65.0162 59.3516 63.8057 57.8606 63.8057Z" fill="url(#paint0_linear_319_52)"/>
<defs>
<linearGradient id="paint0_linear_319_52" x1="115.716" y1="58.9392" x2="0" y2="58.9392" gradientUnits="userSpaceOnUse">
<stop stop-color="#AE1717" stop-opacity="0.05"/>
<stop offset="1" stop-color="#AE1717" stop-opacity="0.5"/>
<stop offset="1.0001" stop-color="#661616"/>
</linearGradient>
</defs>
</svg>
